<svg width="30.000000" height="30.000000" viewBox="0 0 30 30" fill="none" xmlns="http://www.w3.org/2000/svg" xmlns:xlink="http://www.w3.org/1999/xlink">
	<desc>
			Created with Pixso.
	</desc>
	<defs>
		<clipPath id="clip38_3002">
			<rect id="Icon" width="30.000000" height="30.000000" fill="white" fill-opacity="0"/>
		</clipPath>
	</defs>
	<rect id="Icon" width="30.000000" height="30.000000" fill="#FFFFFF" fill-opacity="0"/>
	<g clip-path="url(#clip38_3002)">
		<path id="Vector" d="M29.707 15.3456C29.707 14.3259 29.625 13.3007 29.4492 12.2976L15.3008 12.2976L15.3008 18.0739L23.4023 18.0739C23.0664 19.9368 21.9883 21.5848 20.4062 22.632L20.4062 26.3799L25.2383 26.3799C28.0781 23.7674 29.707 19.9092 29.707 15.3456Z" fill="#4285F4" fill-opacity="1.000000" fill-rule="nonzero"/>
		<path id="Vector" d="M15.3008 30.001C19.3438 30.001 22.7578 28.6727 25.2422 26.3799L20.4102 22.632C19.0625 23.5469 17.3281 24.0649 15.3047 24.0649C11.3906 24.0649 8.07422 21.4249 6.88281 17.8754L1.89453 17.8754L1.89453 21.739C4.44141 26.8043 9.62891 30.001 15.3008 30.001Z" fill="#34A853" fill-opacity="1.000000" fill-rule="nonzero"/>
		<path id="Vector" d="M6.87891 17.8753C6.25 16.0124 6.25 13.9951 6.87891 12.1322L6.87891 8.26849L1.89453 8.26849C-0.230469 12.507 -0.230469 17.5005 1.89453 21.739L6.87891 17.8753Z" fill="#FBBC04" fill-opacity="1.000000" fill-rule="nonzero"/>
		<path id="Vector" d="M15.3008 5.93707C17.4375 5.90399 19.5039 6.70868 21.0547 8.18585L25.3359 3.90326C22.625 1.35687 19.0234 -0.0430908 15.3008 0.0010376C9.62891 0.0010376 4.44141 3.19775 1.89453 8.26849L6.87891 12.1322C8.0625 8.57715 11.3867 5.93707 15.3008 5.93707Z" fill="#EA4335" fill-opacity="1.000000" fill-rule="nonzero"/>
	</g>
</svg>
