<svg width="357.000000" height="84.000000" viewBox="0 0 357 84" fill="none" xmlns="http://www.w3.org/2000/svg" xmlns:xlink="http://www.w3.org/1999/xlink">
	<desc>
			Created with Pixso.
	</desc>
	<defs>
		<clipPath id="clip127_12">
			<rect id="Logo" width="48.000000" height="24.000000" transform="translate(42.166992 30.000000)" fill="white" fill-opacity="0"/>
		</clipPath>
		<clipPath id="clip127_11">
			<rect id="Card" width="112.333336" height="64.000000" transform="translate(10.000000 10.000000)" fill="white" fill-opacity="0"/>
		</clipPath>
		<clipPath id="clip127_16">
			<rect id="Logo" width="70.000015" height="24.000000" transform="translate(143.500000 30.000000)" fill="white" fill-opacity="0"/>
		</clipPath>
		<clipPath id="clip127_15">
			<rect id="Card" width="112.333336" height="64.000000" transform="translate(122.333008 10.000000)" fill="white" fill-opacity="0"/>
		</clipPath>
		<clipPath id="clip127_20">
			<rect id="Logo" width="48.999981" height="24.000000" transform="translate(266.333008 30.000000)" fill="white" fill-opacity="0"/>
		</clipPath>
		<clipPath id="clip127_19">
			<rect id="Card" width="112.333336" height="64.000000" transform="translate(234.666992 10.000000)" fill="white" fill-opacity="0"/>
		</clipPath>
	</defs>
	<rect id="Container" rx="4.000000" width="356.000000" height="83.000000" transform="translate(0.500000 0.500000)" fill="#FCFCFD" fill-opacity="1.000000"/>
	<g clip-path="url(#clip127_11)">
		<rect id="Logo" width="48.000000" height="24.000000" transform="translate(42.166992 30.000000)" fill="#FFFFFF" fill-opacity="0"/>
		<g clip-path="url(#clip127_12)">
			<path id="Vector" d="M72.4619 33.0791L74.2285 33.0791C74.2607 33.2421 74.2715 33.4104 74.2764 33.5786L74.2764 33.5839C74.2764 33.7574 74.2607 33.9257 74.2344 34.0887L72.4678 34.0887L73.7188 35.3402C73.624 35.4822 73.5137 35.6084 73.3926 35.7294C73.2715 35.8451 73.1406 35.9555 73.0039 36.0554L71.752 34.8039L71.752 36.5707C71.5889 36.597 71.4209 36.6128 71.2471 36.6128L71.2422 36.6128C71.0684 36.6128 70.9004 36.597 70.7373 36.5707L70.7373 34.8039L69.4854 36.0554C69.207 35.8556 68.9648 35.6137 68.7705 35.3402L70.0225 34.0887L68.2549 34.0887C68.2295 33.9257 68.2129 33.7574 68.2129 33.5839C68.2129 33.4104 68.2549 33.0791 68.2549 33.0791L70.0225 33.0791L68.7656 31.8275C68.8652 31.6856 68.9707 31.5594 69.0918 31.4384C69.2119 31.3227 69.3438 31.2123 69.4805 31.1124L70.7324 32.3639L70.7324 30.597C70.8955 30.5708 71.0635 30.555 71.2373 30.555L71.2422 30.555C71.416 30.555 71.584 30.5708 71.7471 30.597L71.7471 32.3639L72.998 31.1124C73.1406 31.2071 73.2666 31.3175 73.3877 31.4384C73.5029 31.5594 73.6133 31.6908 73.7139 31.8275L72.4619 33.0791ZM71.8838 34.2307C71.957 34.0309 71.999 33.8153 71.999 33.5891C71.999 33.3578 71.957 33.1422 71.8838 32.9424C71.6836 32.8687 71.4688 32.8267 71.2422 32.8267C71.0156 32.8267 70.8008 32.8687 70.6006 32.9424C70.5273 33.1422 70.4854 33.3578 70.4854 33.5839L70.4854 33.5891C70.4854 33.8153 70.5273 34.0309 70.6006 34.2307C70.8008 34.3043 71.0156 34.3464 71.2422 34.3464C71.4688 34.3464 71.6836 34.3043 71.8838 34.2307ZM76.3955 43.7171C76.4219 44.7372 76.6846 45.4892 77.1895 45.9624C77.6943 46.4357 78.4414 46.6723 79.4248 46.6723C80.2871 46.6723 81.1123 46.5198 81.8906 46.2148C81.9902 46.3989 82.0693 46.6198 82.127 46.8827C82.1904 47.1456 82.2217 47.4033 82.2373 47.6609C81.8379 47.8292 81.3965 47.9607 80.9131 48.0448C80.4336 48.1289 79.8975 48.171 79.3145 48.171C78.4619 48.171 77.7314 48.0501 77.1211 47.8134C76.5117 47.5768 76.0117 47.2403 75.6172 46.8091C75.2227 46.3779 74.9336 45.8678 74.75 45.2736C74.5654 44.6846 74.4766 44.0378 74.4766 43.3279C74.4766 42.6338 74.5654 41.987 74.7393 41.3823C74.9131 40.7776 75.1865 40.257 75.5488 39.81C75.9121 39.3683 76.375 39.0107 76.9268 38.753C77.4785 38.4901 78.1357 38.3586 78.8877 38.3586C79.5352 38.3586 80.0977 38.4691 80.5869 38.6899C81.0752 38.9108 81.4805 39.2105 81.8115 39.5944C82.1377 39.9783 82.3906 40.4358 82.5586 40.9616C82.7266 41.4927 82.8164 42.0659 82.8164 42.6864C82.8164 42.8547 82.8105 43.0387 82.7949 43.2227C82.7842 43.4121 82.7686 43.5751 82.7588 43.7065L76.3955 43.7065L76.3955 43.7171ZM56.3867 41.7818C56.3867 41.0614 56.2031 40.5671 55.8398 40.2831C55.4775 40.0044 54.9463 39.8625 54.252 39.8625C53.8262 39.8625 53.4268 39.894 53.0586 39.9623C52.6846 40.0307 52.3271 40.1148 51.9697 40.2253C51.7383 39.8256 51.623 39.3419 51.623 38.7845C52.0381 38.653 52.4902 38.5478 52.9902 38.4742C53.4893 38.4006 53.9678 38.3638 54.4307 38.3638C55.6455 38.3638 56.5713 38.6425 57.207 39.1946C57.8379 39.7468 58.1592 40.6354 58.1592 41.8502L58.1592 47.7081C57.7334 47.8028 57.2178 47.908 56.6074 48.0079C55.998 48.113 55.377 48.1604 54.7461 48.1604C54.1523 48.1604 53.6104 48.1078 53.1318 47.9973C52.6533 47.8869 52.2432 47.7134 51.9072 47.4662C51.5703 47.2244 51.3125 46.9141 51.1289 46.5355C50.9443 46.1569 50.8555 45.6994 50.8555 45.1683C50.8555 44.6477 50.96 44.1849 51.1758 43.7906C51.3857 43.3961 51.6758 43.0649 52.0439 42.8072C52.4062 42.5443 52.8271 42.3497 53.3057 42.2235C53.7783 42.0973 54.2783 42.029 54.8037 42.029C55.1934 42.029 55.5137 42.0395 55.7617 42.0552C56.0088 42.071 56.2188 42.0973 56.3926 42.1183L56.3926 41.7818L56.3867 41.7818ZM60.1309 38.5902C60.252 38.5639 60.3779 38.5481 60.5039 38.5376C60.6309 38.5271 60.7617 38.5218 60.8984 38.5218C61.0195 38.5218 61.1455 38.5271 61.2822 38.5376C61.4141 38.5481 61.5459 38.5692 61.666 38.5902C61.6768 38.6165 61.6924 38.6901 61.7139 38.8163C61.7295 38.9425 61.751 39.0792 61.7666 39.2265C61.7822 39.3737 61.8027 39.5104 61.8193 39.6472C61.835 39.7839 61.8457 39.868 61.8457 39.9048C61.9658 39.7102 62.1133 39.5209 62.2822 39.3369C62.4502 39.1528 62.6553 38.9898 62.8916 38.8426C63.1279 38.6953 63.3965 38.5797 63.6963 38.4955C63.9961 38.4114 64.3271 38.3693 64.6904 38.3693C65.2373 38.3693 65.7471 38.4587 66.2148 38.6428C66.6836 38.8268 67.083 39.1055 67.4189 39.4894C67.7559 39.8733 68.0137 40.3623 68.2031 40.9513C68.3926 41.5402 68.4863 42.2396 68.4863 43.0441C68.4863 44.6532 68.0508 45.91 67.1826 46.8145C66.3096 47.7189 65.0791 48.1765 63.4863 48.1765C63.2178 48.1765 62.9443 48.1607 62.666 48.1238C62.3867 48.087 62.1396 48.0397 61.9346 47.9766L61.9346 52.2675C61.7871 52.2939 61.6348 52.3096 61.4668 52.3201C61.3037 52.3307 61.1514 52.3359 61.0195 52.3359C60.8887 52.3359 60.7354 52.3307 60.5723 52.3201C60.4102 52.3096 60.2568 52.2886 60.126 52.2675L60.126 38.5902L60.1309 38.5902ZM84.8145 38.5898C84.9463 38.5635 85.0771 38.5477 85.1982 38.5372C85.3193 38.5267 85.4453 38.5214 85.582 38.5214C85.7139 38.5214 85.8506 38.5267 85.9814 38.5372C86.1133 38.5477 86.2393 38.5688 86.3447 38.5898C86.3818 38.7738 86.418 39.0105 86.4551 39.3102C86.4922 39.6099 86.5078 39.8623 86.5078 40.0674C86.7656 39.652 87.1016 39.2944 87.5225 38.9894C87.9434 38.6844 88.4795 38.532 89.1367 38.532C89.2373 38.532 89.3369 38.5372 89.4365 38.5424C89.542 38.5477 89.626 38.5582 89.6992 38.5688C89.7256 38.6792 89.7412 38.7949 89.752 38.9158C89.7627 39.0367 89.7676 39.163 89.7676 39.2997C89.7676 39.4469 89.7578 39.5994 89.7412 39.7572C89.7256 39.9149 89.6992 40.0674 89.6787 40.2147C89.5791 40.1884 89.4785 40.1779 89.3789 40.1779L89.1318 40.1779C88.8057 40.1779 88.4902 40.2252 88.1904 40.3146C87.8906 40.404 87.6221 40.567 87.3857 40.7984C87.1494 41.0297 86.96 41.3452 86.8184 41.7502C86.6758 42.1498 86.6074 42.6704 86.6074 43.3014L86.6074 47.9552C86.4766 47.9815 86.3232 47.9973 86.1602 48.0078C85.998 48.0183 85.8447 48.0236 85.7139 48.0236C85.582 48.0236 85.4297 48.0183 85.2666 48.0078C85.1035 47.9973 84.9463 47.9762 84.7988 47.9552L84.7988 38.5898L84.8145 38.5898ZM42.168 47.6975L47.0947 40.0306L42.752 40.0306C42.7148 39.8098 42.6992 39.5679 42.6992 39.2997C42.6992 39.042 42.7148 38.8054 42.752 38.5898L49.7822 38.5898L49.8721 38.8264L44.9072 46.5091L49.5615 46.5091C49.5986 46.751 49.6143 47.0034 49.6143 47.2558C49.6143 47.4977 49.5986 47.7291 49.5615 47.9499L42.2578 47.9499L42.168 47.6975ZM70.7373 40.0096L69.5488 40.0096C69.5225 39.9097 69.5068 39.7993 69.4961 39.673C69.4863 39.5468 69.4805 39.4206 69.4805 39.2997C69.4805 39.1787 69.4863 39.0525 69.4961 38.9263C69.5068 38.8001 69.5283 38.6844 69.5488 38.5898L72.5098 38.5898L72.5098 47.9552C72.3779 47.9815 72.2256 47.9973 72.0625 48.0078C71.8994 48.0183 71.7471 48.0236 71.6152 48.0236C71.4941 48.0236 71.3525 48.0183 71.1846 48.0078C71.0215 47.9973 70.8691 47.9762 70.7373 47.9552L70.7373 40.0096ZM81.0332 42.3656C81.0332 42.0238 80.9863 41.6978 80.8965 41.3875C80.8076 41.0773 80.6709 40.8091 80.4971 40.5777C80.3184 40.3464 80.0977 40.1623 79.8242 40.0203C79.5508 39.8784 79.2246 39.81 78.8457 39.81C78.1045 39.81 77.5371 40.0361 77.1367 40.4831C76.7422 40.9353 76.501 41.5611 76.417 42.3656L81.0332 42.3656ZM61.9395 46.4201C62.1709 46.5042 62.4082 46.5673 62.6494 46.6042C62.8916 46.641 63.207 46.6567 63.6016 46.6567C64.0381 46.6567 64.4434 46.5884 64.8057 46.4464C65.1689 46.3044 65.4844 46.0888 65.7471 45.7996C66.0098 45.5051 66.2148 45.137 66.3672 44.6953C66.5205 44.2536 66.5938 43.7225 66.5938 43.1178C66.5938 42.1449 66.415 41.3719 66.0576 40.7988C65.7002 40.2256 65.1104 39.9416 64.2959 39.9416C63.9912 39.9416 63.7012 39.9942 63.418 40.1046C63.1387 40.2151 62.8867 40.3781 62.6709 40.5989C62.4502 40.8198 62.2764 41.0932 62.1396 41.4298C62.0029 41.7663 61.9395 42.1607 61.9395 42.6234L61.9395 46.4201ZM56.3867 43.5539C56.2031 43.5276 55.9717 43.5066 55.6934 43.4803C55.4141 43.454 55.1777 43.4435 54.9834 43.4435C54.2256 43.4435 53.6523 43.5855 53.2578 43.8642C52.8643 44.1429 52.6641 44.5688 52.6641 45.142C52.6641 45.5048 52.7324 45.794 52.8643 45.9991C52.9951 46.2042 53.1631 46.362 53.3633 46.4724C53.5635 46.5828 53.7842 46.6512 54.0312 46.6722C54.2734 46.6985 54.5049 46.709 54.7256 46.709C55.0039 46.709 55.293 46.6932 55.5928 46.6617C55.8926 46.6301 56.1553 46.5881 56.3867 46.525L56.3867 43.5539Z" fill="#4C4C4D" fill-opacity="1.000000" fill-rule="evenodd"/>
		</g>
	</g>
	<line id="Line" x1="122.333008" y1="10.000000" x2="122.333008" y2="74.000000" stroke="#F1F1F3" stroke-opacity="1.000000" stroke-width="1.000000"/>
	<g clip-path="url(#clip127_15)">
		<rect id="Logo" width="70.000015" height="24.000000" transform="translate(143.500000 30.000000)" fill="#FFFFFF" fill-opacity="0"/>
		<g clip-path="url(#clip127_16)">
			<path id="Vector" d="M154.038 31.5394C148.239 31.5394 143.538 36.2404 143.538 42.0394C143.538 47.8387 148.239 52.5394 154.038 52.5394C159.838 52.5394 164.539 47.8387 164.539 42.0394C164.539 36.2408 159.838 31.5399 154.038 31.5399L154.038 31.5394ZM158.854 46.6835C158.665 46.9919 158.262 47.0897 157.953 46.9004C155.488 45.3945 152.385 45.0535 148.729 45.8885C148.377 45.9688 148.026 45.7481 147.946 45.3958C147.865 45.0434 148.085 44.6924 148.438 44.6121C152.438 43.6983 155.869 44.0917 158.637 45.7832C158.945 45.9725 159.043 46.375 158.854 46.6835ZM160.139 43.8244C159.901 44.2096 159.397 44.3312 159.013 44.0942C156.19 42.3594 151.888 41.857 148.55 42.8704C148.116 43.0011 147.659 42.7571 147.528 42.3249C147.397 41.892 147.642 41.4356 148.074 41.3039C151.888 40.1469 156.628 40.7073 159.869 42.6991C160.254 42.9361 160.376 43.4401 160.139 43.8246L160.139 43.8244ZM160.249 40.8473C156.865 38.8372 151.281 38.6524 148.051 39.633C147.531 39.7904 146.983 39.4975 146.826 38.9786C146.669 38.4595 146.961 37.9112 147.48 37.7535C151.189 36.6275 157.355 36.8451 161.252 39.1581C161.719 39.435 161.872 40.0378 161.595 40.5038C161.319 40.9705 160.715 41.1244 160.25 40.8473L160.249 40.8473ZM172.105 41.2325C170.293 40.8001 169.971 40.4967 169.971 39.8591C169.971 39.2567 170.537 38.8514 171.381 38.8514C172.198 38.8514 173.009 39.1592 173.858 39.7929C173.884 39.8121 173.916 39.8197 173.947 39.8147C173.98 39.8099 174.008 39.7925 174.026 39.7663L174.912 38.5185C174.948 38.4671 174.938 38.3962 174.89 38.357C173.877 37.5453 172.739 37.1508 171.407 37.1508C169.45 37.1508 168.082 38.3255 168.082 40.0063C168.082 41.8087 169.262 42.4469 171.301 42.9396C173.035 43.3392 173.328 43.674 173.328 44.2723C173.328 44.9356 172.736 45.3481 171.783 45.3481C170.726 45.3481 169.861 44.9908 168.896 44.1557C168.872 44.1344 168.839 44.1256 168.81 44.1269C168.776 44.1294 168.748 44.1444 168.728 44.1682L167.734 45.3494C167.693 45.3995 167.698 45.4722 167.746 45.5149C168.869 46.518 170.251 47.0471 171.743 47.0471C173.853 47.0471 175.215 45.8948 175.215 44.1106C175.219 42.605 174.317 41.7712 172.109 41.2341L172.105 41.2325ZM179.987 39.4445C179.073 39.4445 178.323 39.8046 177.704 40.5424L177.704 39.7119C177.704 39.6463 177.651 39.5929 177.586 39.5929L175.963 39.5929C175.897 39.5929 175.845 39.6463 175.845 39.7119L175.845 48.9404C175.845 49.0056 175.897 49.0595 175.963 49.0595L177.586 49.0595C177.651 49.0595 177.704 49.0056 177.704 48.9404L177.704 46.0277C178.323 46.7211 179.073 47.0609 179.987 47.0609C181.687 47.0609 183.406 45.7531 183.406 43.2531C183.409 40.7525 181.688 39.4443 179.988 39.4443L179.987 39.4445ZM181.519 43.2531C181.519 44.5256 180.734 45.4146 179.611 45.4146C178.502 45.4146 177.664 44.4854 177.664 43.2531C177.664 42.0205 178.502 41.0916 179.611 41.0916C180.716 41.0915 181.519 42.0003 181.519 43.2529L181.519 43.2531ZM187.814 39.4445C185.626 39.4445 183.912 41.1291 183.912 43.2802C183.912 45.4083 185.614 47.0747 187.788 47.0747C189.983 47.0747 191.702 45.3958 191.702 43.2531C191.702 41.1176 189.994 39.4447 187.814 39.4447L187.814 39.4445ZM187.814 45.4271C186.65 45.4271 185.772 44.4917 185.772 43.2524C185.772 42.0074 186.62 41.1041 187.788 41.1041C188.959 41.1041 189.842 42.0391 189.842 43.2796C189.842 44.5243 188.989 45.4271 187.814 45.4271ZM196.374 39.5929L194.587 39.5929L194.587 37.7665C194.587 37.7011 194.535 37.6477 194.47 37.6477L192.846 37.6477C192.78 37.6477 192.727 37.7011 192.727 37.7665L192.727 39.5929L191.946 39.5929C191.882 39.5929 191.829 39.6463 191.829 39.7119L191.829 41.1071C191.829 41.1725 191.882 41.226 191.946 41.226L192.727 41.226L192.727 44.8365C192.727 46.2948 193.452 47.0345 194.886 47.0345C195.468 47.0345 195.95 46.9142 196.405 46.6559C196.443 46.6358 196.466 46.5957 196.466 46.5531L196.466 45.224C196.466 45.1839 196.444 45.145 196.409 45.1237C196.374 45.1011 196.33 45.0999 196.294 45.1187C195.981 45.2754 195.68 45.3481 195.341 45.3481C194.82 45.3481 194.587 45.1111 194.587 44.582L194.587 41.2267L196.374 41.2267C196.439 41.2267 196.492 41.1733 196.492 41.1077L196.492 39.7126C196.494 39.6471 196.441 39.5937 196.375 39.5937L196.374 39.5929ZM202.599 39.6L202.599 39.3757C202.599 38.7158 202.852 38.4215 203.418 38.4215C203.757 38.4215 204.029 38.4887 204.334 38.5903C204.371 38.6021 204.41 38.5962 204.44 38.5738C204.472 38.5513 204.489 38.5153 204.489 38.4772L204.489 37.1093C204.489 37.057 204.456 37.0107 204.405 36.9953C204.084 36.8996 203.673 36.8014 203.056 36.8014C201.558 36.8014 200.764 37.6458 200.764 39.2423L200.764 39.5859L199.984 39.5859C199.919 39.5859 199.865 39.6393 199.865 39.7047L199.865 41.1071C199.865 41.1725 199.919 41.226 199.984 41.226L200.764 41.226L200.764 46.7938C200.764 46.8603 200.817 46.9129 200.883 46.9129L202.506 46.9129C202.572 46.9129 202.625 46.8603 202.625 46.7938L202.625 41.2264L204.141 41.2264L206.463 46.7938C206.199 47.3781 205.939 47.4947 205.586 47.4947C205.301 47.4947 204.998 47.4095 204.691 47.2402C204.662 47.2251 204.627 47.2226 204.597 47.2314C204.565 47.2427 204.539 47.2653 204.526 47.2953L203.977 48.5028C203.95 48.5605 203.973 48.627 204.027 48.657C204.602 48.968 205.12 49.1009 205.761 49.1009C206.959 49.1009 207.622 48.5417 208.205 47.0396L211.021 39.7625C211.037 39.7259 211.031 39.6846 211.009 39.6521C210.988 39.6199 210.951 39.6004 210.913 39.6004L209.223 39.6004C209.171 39.6004 209.126 39.6327 209.109 39.6802L207.378 44.6246L205.482 39.6769C205.465 39.6309 205.421 39.6004 205.372 39.6004L202.599 39.6004L202.599 39.6ZM198.989 39.5929L197.366 39.5929C197.301 39.5929 197.247 39.6463 197.247 39.7119L197.247 46.7938C197.247 46.8603 197.301 46.9129 197.366 46.9129L198.989 46.9129C199.055 46.9129 199.108 46.8603 199.108 46.7938L199.108 39.7124C199.108 39.6468 199.056 39.5934 198.989 39.5934L198.989 39.5929ZM198.188 36.3681C197.544 36.3681 197.022 36.8887 197.022 37.5318C197.022 38.1753 197.544 38.6965 198.188 38.6965C198.83 38.6965 199.351 38.1753 199.351 37.5318C199.351 36.8888 198.829 36.3681 198.188 36.3681ZM212.408 41.87C211.767 41.87 211.267 41.3541 211.267 40.7275C211.267 40.101 211.772 39.5791 212.415 39.5791C213.057 39.5791 213.557 40.0949 213.557 40.721C213.557 41.3476 213.051 41.87 212.408 41.87ZM212.415 39.6927C211.829 39.6927 211.387 40.1579 211.387 40.7275C211.387 41.2969 211.827 41.7558 212.408 41.7558C212.994 41.7558 213.437 41.291 213.437 40.721C213.437 40.1516 212.996 39.6927 212.415 39.6927ZM212.668 40.8385L212.991 41.2909L212.718 41.2909L212.428 40.8759L212.178 40.8759L212.178 41.2909L211.949 41.2909L211.949 40.0917L212.483 40.0917C212.764 40.0917 212.946 40.2343 212.946 40.4742C212.947 40.6708 212.834 40.791 212.669 40.8385L212.668 40.8385ZM212.475 40.2975L212.178 40.2975L212.178 40.6767L212.475 40.6767C212.623 40.6767 212.712 40.6041 212.712 40.4869C212.712 40.3635 212.623 40.2975 212.475 40.2975Z" fill="#4C4C4D" fill-opacity="1.000000" fill-rule="nonzero"/>
		</g>
	</g>
	<line id="Line" x1="234.666992" y1="10.000000" x2="234.666992" y2="74.000000" stroke="#F1F1F3" stroke-opacity="1.000000" stroke-width="1.000000"/>
	<g clip-path="url(#clip127_19)">
		<rect id="Logo" width="48.999981" height="24.000000" transform="translate(266.333008 30.000000)" fill="#FFFFFF" fill-opacity="0"/>
		<g clip-path="url(#clip127_20)">
			<path id="Vector" d="M306.187 40.2998C306.374 40.6227 306.435 40.9899 306.455 41.4028L306.481 41.9532L306.481 45.8016L306.509 46.3525C306.563 47.2522 307.227 47.9175 308.134 47.9741L308.682 48.0012L308.682 41.9532L308.709 41.4028C308.731 40.9946 308.792 40.6203 308.981 40.2952C309.175 39.9617 309.453 39.6851 309.787 39.493C310.122 39.3009 310.501 39.2001 310.887 39.2008C311.272 39.2015 311.65 39.3036 311.984 39.4969C312.318 39.6903 312.595 39.968 312.787 40.3022C312.975 40.625 313.033 40.9992 313.056 41.4028L313.082 41.9514L313.082 45.8016L313.109 46.3525C313.166 47.2568 313.824 47.9221 314.734 47.9741L315.282 48.0012L315.282 41.4028C315.282 40.2361 314.818 39.1171 313.994 38.2919C313.169 37.4666 312.05 37.0028 310.884 37.0024C310.259 37.0017 309.642 37.1343 309.072 37.3914C308.503 37.6484 307.995 38.0239 307.583 38.4929C307.17 38.0241 306.663 37.6487 306.094 37.3916C305.524 37.1345 304.907 37.0016 304.282 37.0018C303.369 37.0018 302.521 37.279 301.819 37.7577C301.391 37.2796 300.432 37.0018 299.882 37.0018L299.882 48.0012L300.432 47.9741C301.353 47.9135 302.018 47.2661 302.054 46.3525L302.083 45.8016L302.083 41.9532L302.11 41.4028C302.133 40.9876 302.191 40.6227 302.379 40.2975C302.572 39.9643 302.851 39.6877 303.185 39.4953C303.519 39.303 303.897 39.2017 304.282 39.2014C304.668 39.2015 305.048 39.3031 305.382 39.4958C305.716 39.6886 305.993 39.9659 306.187 40.2998ZM268.532 47.9747L269.083 48.0012L277.332 48.0012L277.306 47.4526C277.23 46.5483 276.591 45.8876 275.684 45.8287L275.133 45.8016L270.184 45.8016L276.782 39.2009L276.755 38.6528C276.712 37.7393 276.045 37.0792 275.133 37.0289L274.582 37.0041L266.333 37.0018L266.36 37.5522C266.433 38.4478 267.082 39.1223 267.981 39.1743L268.532 39.2014L273.481 39.2014L266.884 45.8022L266.91 46.3525C266.965 47.2592 267.619 47.9158 268.532 47.9741L268.532 47.9747ZM297.723 38.6118C298.233 39.1225 298.639 39.7288 298.915 40.3961C299.191 41.0634 299.334 41.7786 299.334 42.5009C299.334 43.2232 299.191 43.9384 298.915 44.6057C298.639 45.273 298.233 45.8793 297.723 46.39C296.69 47.4212 295.291 48.0004 293.832 48.0004C292.374 48.0004 290.975 47.4212 289.942 46.39C287.795 44.2423 287.795 40.7595 289.942 38.6118C290.453 38.1013 291.059 37.6963 291.726 37.42C292.393 37.1436 293.107 37.0013 293.829 37.0012C294.552 37.0007 295.268 37.1428 295.937 37.4192C296.604 37.6957 297.211 38.1012 297.723 38.6124L297.723 38.6118ZM296.166 40.1693C296.784 40.7884 297.132 41.6278 297.132 42.503C297.132 43.3781 296.784 44.2175 296.166 44.8366C295.547 45.4552 294.708 45.8027 293.832 45.8027C292.957 45.8027 292.118 45.4552 291.499 44.8366C290.88 44.2175 290.532 43.3781 290.532 42.503C290.532 41.6278 290.88 40.7884 291.499 40.1693C292.118 39.5507 292.957 39.2032 293.832 39.2032C294.708 39.2032 295.547 39.5507 296.166 40.1693ZM282.286 37.0012C283.008 37.0014 283.723 37.1438 284.39 37.4203C285.057 37.6967 285.662 38.1018 286.173 38.6124C288.321 40.7595 288.321 44.2429 286.173 46.39C285.141 47.4212 283.741 48.0004 282.282 48.0004C280.824 48.0004 279.425 47.4212 278.393 46.39C276.245 44.2423 276.245 40.7595 278.393 38.6118C278.903 38.1013 279.509 37.6963 280.176 37.42C280.843 37.1436 281.558 37.0013 282.279 37.0012L282.286 37.0012ZM284.616 40.1682C285.235 40.7873 285.583 41.6268 285.583 42.5021C285.583 43.3774 285.235 44.2169 284.616 44.836C283.997 45.4546 283.158 45.8021 282.282 45.8021C281.407 45.8021 280.568 45.4546 279.949 44.836C279.33 44.2169 278.983 43.3776 278.983 42.5024C278.983 41.6272 279.33 40.7878 279.949 40.1687C280.568 39.5501 281.407 39.2026 282.282 39.2026C283.158 39.2026 283.997 39.5501 284.616 40.1687L284.616 40.1682Z" fill="#4C4C4D" fill-opacity="1.000000" fill-rule="evenodd"/>
		</g>
	</g>
	<line id="Line" x1="347.000000" y1="10.000000" x2="347.000000" y2="74.000000" stroke="#F1F1F3" stroke-opacity="1.000000" stroke-width="1.000000"/>
	<rect id="Container" rx="4.000000" width="356.000000" height="83.000000" transform="translate(0.500000 0.500000)" stroke="#F1F1F3" stroke-opacity="1.000000" stroke-width="1.000000"/>
</svg>
